<svg width="26" height="26" viewBox="0 0 26 26" fill="none" xmlns="http://www.w3.org/2000/svg">
<mask id="mask0_1473_2" style="mask-type:luminance" maskUnits="userSpaceOnUse" x="0" y="0" width="26" height="26">
<path d="M25.3889 0H0V25.3889H25.3889V0Z" fill="white"/>
</mask>
<g mask="url(#mask0_1473_2)">
<path d="M5.08682 4.64014H4.23901V5.48794H5.08682V4.64014Z" fill="#6366F1"/>
<path d="M5.93472 4.64014H5.08691V5.48794H5.93472V4.64014Z" fill="#6366F1"/>
<path d="M6.78237 4.64014H5.93457V5.48794H6.78237V4.64014Z" fill="#6366F1"/>
<path d="M7.63027 4.64014H6.78247V5.48794H7.63027V4.64014Z" fill="#6366F1"/>
<path d="M8.47818 4.64014H7.63037V5.48794H8.47818V4.64014Z" fill="#6366F1"/>
<path d="M9.32583 4.64014H8.47803V5.48794H9.32583V4.64014Z" fill="#6366F1"/>
<path d="M10.1737 4.64014H9.32593V5.48794H10.1737V4.64014Z" fill="#6366F1"/>
<path d="M11.0214 4.64014H10.1736V5.48794H11.0214V4.64014Z" fill="#6366F1"/>
<path d="M11.0214 3.79248H10.1736V4.64028H11.0214V3.79248Z" fill="#6366F1"/>
<path d="M10.1737 3.79248H9.32593V4.64028H10.1737V3.79248Z" fill="#6366F1"/>
<path d="M10.1737 5.48828H9.32593V6.33609H10.1737V5.48828Z" fill="#6366F1"/>
<path d="M11.0214 5.48828H10.1736V6.33609H11.0214V5.48828Z" fill="#6366F1"/>
<path d="M9.32583 5.48828H8.47803V6.33609H9.32583V5.48828Z" fill="#6366F1"/>
<path d="M8.47818 5.48828H7.63037V6.33609H8.47818V5.48828Z" fill="#6366F1"/>
<path d="M7.63027 5.48828H6.78247V6.33609H7.63027V5.48828Z" fill="#6366F1"/>
<path d="M6.78237 5.48828H5.93457V6.33609H6.78237V5.48828Z" fill="#6366F1"/>
<path d="M5.93472 5.48828H5.08691V6.33609H5.93472V5.48828Z" fill="#6366F1"/>
<path d="M5.08682 5.48828H4.23901V6.33609H5.08682V5.48828Z" fill="#6366F1"/>
<path d="M11.0214 5.48828H10.1736V6.33609H11.0214V5.48828Z" fill="#6366F1"/>
<path d="M11.8693 5.48828H11.0215V6.33609H11.8693V5.48828Z" fill="#6366F1"/>
<path d="M11.8693 6.33594H11.0215V7.18374H11.8693V6.33594Z" fill="#6366F1"/>
<path d="M11.8693 7.18359H11.0215V8.0314H11.8693V7.18359Z" fill="#6366F1"/>
<path d="M11.8693 8.03174H11.0215V8.87954H11.8693V8.03174Z" fill="#6366F1"/>
<path d="M11.8693 8.87939H11.0215V9.7272H11.8693V8.87939Z" fill="#6366F1"/>
<path d="M11.8693 9.72705H11.0215V10.5749H11.8693V9.72705Z" fill="#6366F1"/>
<path d="M12.7172 8.87939H11.8694V9.7272H12.7172V8.87939Z" fill="#6366F1"/>
<path d="M12.7172 8.03174H11.8694V8.87954H12.7172V8.03174Z" fill="#6366F1"/>
<path d="M12.7172 7.18359H11.8694V8.0314H12.7172V7.18359Z" fill="#6366F1"/>
<path d="M13.5648 8.03174H12.717V8.87954H13.5648V8.03174Z" fill="#6366F1"/>
<path d="M16.1083 9.72705H15.2605V10.5749H16.1083V9.72705Z" fill="#6366F1"/>
<path d="M15.2604 9.72705H14.4126V10.5749H15.2604V9.72705Z" fill="#6366F1"/>
<path d="M14.4127 9.72705H13.5649V10.5749H14.4127V9.72705Z" fill="#6366F1"/>
<path d="M13.5648 9.72705H12.717V10.5749H13.5648V9.72705Z" fill="#6366F1"/>
<path d="M13.5648 10.5747H12.717V11.4225H13.5648V10.5747Z" fill="#6366F1"/>
<path d="M14.4127 10.5747H13.5649V11.4225H14.4127V10.5747Z" fill="#6366F1"/>
<path d="M15.2604 10.5747H14.4126V11.4225H15.2604V10.5747Z" fill="#6366F1"/>
<path d="M16.1083 10.5747H15.2605V11.4225H16.1083V10.5747Z" fill="#6366F1"/>
<path d="M14.4127 11.4229H13.5649V12.2707H14.4127V11.4229Z" fill="#6366F1"/>
<path d="M15.2604 11.4229H14.4126V12.2707H15.2604V11.4229Z" fill="#6366F1"/>
<path d="M16.1083 11.4229H15.2605V12.2707H16.1083V11.4229Z" fill="#6366F1"/>
<path d="M15.2604 12.2705H14.4126V13.1183H15.2604V12.2705Z" fill="#6366F1"/>
<path d="M15.2604 13.1182H14.4126V13.966H15.2604V13.1182Z" fill="#6366F1"/>
<path d="M14.4127 13.1182H13.5649V13.966H14.4127V13.1182Z" fill="#6366F1"/>
<path d="M13.5648 13.1182H12.717V13.966H13.5648V13.1182Z" fill="#6366F1"/>
<path d="M12.7172 12.2705H11.8694V13.1183H12.7172V12.2705Z" fill="#6366F1"/>
<path d="M11.8693 11.4229H11.0215V12.2707H11.8693V11.4229Z" fill="#6366F1"/>
<path d="M11.0214 10.5747H10.1736V11.4225H11.0214V10.5747Z" fill="#6366F1"/>
<path d="M10.1737 10.5747H9.32593V11.4225H10.1737V10.5747Z" fill="#6366F1"/>
<path d="M9.32583 10.5747H8.47803V11.4225H9.32583V10.5747Z" fill="#6366F1"/>
<path d="M10.1737 11.4229H9.32593V12.2707H10.1737V11.4229Z" fill="#6366F1"/>
<path d="M11.0214 11.4229H10.1736V12.2707H11.0214V11.4229Z" fill="#6366F1"/>
<path d="M11.0214 12.2705H10.1736V13.1183H11.0214V12.2705Z" fill="#6366F1"/>
<path d="M11.8693 13.1182H11.0215V13.966H11.8693V13.1182Z" fill="#6366F1"/>
<path d="M12.7172 13.1182H11.8694V13.966H12.7172V13.1182Z" fill="#6366F1"/>
<path d="M12.7172 13.9663H11.8694V14.8141H12.7172V13.9663Z" fill="#6366F1"/>
<path d="M13.5648 13.9663H12.717V14.8141H13.5648V13.9663Z" fill="#6366F1"/>
<path d="M14.4127 13.9663H13.5649V14.8141H14.4127V13.9663Z" fill="#6366F1"/>
<path d="M12.7172 14.814H11.8694V15.6618H12.7172V14.814Z" fill="#6366F1"/>
<path d="M13.5648 14.814H12.717V15.6618H13.5648V14.814Z" fill="#6366F1"/>
<path d="M13.5648 15.6616H12.717V16.5094H13.5648V15.6616Z" fill="#6366F1"/>
<path d="M12.7172 9.72705H11.8694V10.5749H12.7172V9.72705Z" fill="#6366F1"/>
<path d="M14.4127 8.87939H13.5649V9.7272H14.4127V8.87939Z" fill="#6366F1"/>
<path d="M14.4127 8.87939H13.5649V9.7272H14.4127V8.87939Z" fill="#6366F1"/>
<path d="M13.5648 8.87939H12.717V9.7272H13.5648V8.87939Z" fill="#6366F1"/>
<path d="M13.5648 8.87939H12.717V9.7272H13.5648V8.87939Z" fill="#6366F1"/>
<path d="M5.08682 5.48828H4.23901V6.33609H5.08682V5.48828Z" fill="#6366F1"/>
<path d="M10.1737 6.33594H9.32593V7.18374H10.1737V6.33594Z" fill="#6366F1"/>
<path d="M9.32583 6.33594H8.47803V7.18374H9.32583V6.33594Z" fill="#6366F1"/>
<path d="M8.47818 6.33594H7.63037V7.18374H8.47818V6.33594Z" fill="#6366F1"/>
<path d="M7.63027 6.33594H6.78247V7.18374H7.63027V6.33594Z" fill="#6366F1"/>
<path d="M6.78237 6.33594H5.93457V7.18374H6.78237V6.33594Z" fill="#6366F1"/>
<path d="M5.93472 6.33594H5.08691V7.18374H5.93472V6.33594Z" fill="#6366F1"/>
<path d="M11.0214 6.33594H10.1736V7.18374H11.0214V6.33594Z" fill="#6366F1"/>
<path d="M5.08682 6.33594H4.23901V7.18374H5.08682V6.33594Z" fill="#6366F1"/>
<path d="M10.1737 7.18359H9.32593V8.0314H10.1737V7.18359Z" fill="#6366F1"/>
<path d="M9.32583 7.18359H8.47803V8.0314H9.32583V7.18359Z" fill="#6366F1"/>
<path d="M8.47818 7.18359H7.63037V8.0314H8.47818V7.18359Z" fill="#6366F1"/>
<path d="M7.63027 7.18359H6.78247V8.0314H7.63027V7.18359Z" fill="#6366F1"/>
<path d="M6.78237 7.18359H5.93457V8.0314H6.78237V7.18359Z" fill="#6366F1"/>
<path d="M5.93472 7.18359H5.08691V8.0314H5.93472V7.18359Z" fill="#6366F1"/>
<path d="M11.0214 7.18359H10.1736V8.0314H11.0214V7.18359Z" fill="#6366F1"/>
<path d="M5.08682 7.18359H4.23901V8.0314H5.08682V7.18359Z" fill="#6366F1"/>
<path d="M10.1737 8.03174H9.32593V8.87954H10.1737V8.03174Z" fill="#6366F1"/>
<path d="M9.32583 8.03174H8.47803V8.87954H9.32583V8.03174Z" fill="#6366F1"/>
<path d="M8.47818 8.03174H7.63037V8.87954H8.47818V8.03174Z" fill="#6366F1"/>
<path d="M7.63027 8.03174H6.78247V8.87954H7.63027V8.03174Z" fill="#6366F1"/>
<path d="M6.78237 8.03174H5.93457V8.87954H6.78237V8.03174Z" fill="#6366F1"/>
<path d="M5.93472 8.03174H5.08691V8.87954H5.93472V8.03174Z" fill="#6366F1"/>
<path d="M11.0214 8.03174H10.1736V8.87954H11.0214V8.03174Z" fill="#6366F1"/>
<path d="M10.1737 8.87939H9.32593V9.7272H10.1737V8.87939Z" fill="#6366F1"/>
<path d="M9.32583 8.87939H8.47803V9.7272H9.32583V8.87939Z" fill="#6366F1"/>
<path d="M8.47818 8.87939H7.63037V9.7272H8.47818V8.87939Z" fill="#6366F1"/>
<path d="M7.63027 8.87939H6.78247V9.7272H7.63027V8.87939Z" fill="#6366F1"/>
<path d="M6.78237 8.87939H5.93457V9.7272H6.78237V8.87939Z" fill="#6366F1"/>
<path d="M11.0214 8.87939H10.1736V9.7272H11.0214V8.87939Z" fill="#6366F1"/>
<path d="M11.0214 9.72705H10.1736V10.5749H11.0214V9.72705Z" fill="#6366F1"/>
<path d="M10.1737 9.72705H9.32593V10.5749H10.1737V9.72705Z" fill="#6366F1"/>
<path d="M9.32583 9.72705H8.47803V10.5749H9.32583V9.72705Z" fill="#6366F1"/>
<path d="M8.47818 9.72705H7.63037V10.5749H8.47818V9.72705Z" fill="#6366F1"/>
<path d="M7.63027 9.72705H6.78247V10.5749H7.63027V9.72705Z" fill="#6366F1"/>
<path d="M5.08682 8.03174H4.23901V8.87954H5.08682V8.03174Z" fill="#6366F1"/>
<path d="M4.23892 5.48828H3.39111V6.33609H4.23892V5.48828Z" fill="#6366F1"/>
<path d="M4.23892 6.33594H3.39111V7.18374H4.23892V6.33594Z" fill="#6366F1"/>
<path d="M3.39126 6.33594H2.54346V7.18374H3.39126V6.33594Z" fill="#6366F1"/>
<path d="M3.39126 7.18359H2.54346V8.0314H3.39126V7.18359Z" fill="#6366F1"/>
<path d="M2.54336 7.18359H1.69556V8.0314H2.54336V7.18359Z" fill="#6366F1"/>
<path d="M2.54336 8.03174H1.69556V8.87954H2.54336V8.03174Z" fill="#6366F1"/>
<path d="M1.6957 8.03174H0.8479V8.87954H1.6957V8.03174Z" fill="#6366F1"/>
<path d="M1.6957 8.87939H0.8479V9.7272H1.6957V8.87939Z" fill="#6366F1"/>
<path d="M1.6957 9.72705H0.8479V10.5749H1.6957V9.72705Z" fill="#6366F1"/>
<path d="M2.54336 9.72705H1.69556V10.5749H2.54336V9.72705Z" fill="#6366F1"/>
<path d="M2.54336 8.87939H1.69556V9.7272H2.54336V8.87939Z" fill="#6366F1"/>
<path d="M3.39126 8.87939H2.54346V9.7272H3.39126V8.87939Z" fill="#6366F1"/>
<path d="M3.39126 8.03174H2.54346V8.87954H3.39126V8.03174Z" fill="#6366F1"/>
<path d="M4.23892 8.03174H3.39111V8.87954H4.23892V8.03174Z" fill="#6366F1"/>
<path d="M4.23892 7.18359H3.39111V8.0314H4.23892V7.18359Z" fill="#6366F1"/>
<path d="M4.23892 8.87939H3.39111V9.7272H4.23892V8.87939Z" fill="#6366F1"/>
<path d="M5.08682 8.87939H4.23901V9.7272H5.08682V8.87939Z" fill="#6366F1"/>
<path d="M5.93472 8.87939H5.08691V9.7272H5.93472V8.87939Z" fill="#6366F1"/>
<path d="M5.93472 9.72705H5.08691V10.5749H5.93472V9.72705Z" fill="#6366F1"/>
<path d="M6.78237 9.72705H5.93457V10.5749H6.78237V9.72705Z" fill="#6366F1"/>
<path d="M6.78237 10.5747H5.93457V11.4225H6.78237V10.5747Z" fill="#6366F1"/>
<path d="M7.63027 10.5747H6.78247V11.4225H7.63027V10.5747Z" fill="#6366F1"/>
<path d="M8.47818 11.4229H7.63037V12.2707H8.47818V11.4229Z" fill="#6366F1"/>
<path d="M8.47818 11.4229H7.63037V12.2707H8.47818V11.4229Z" fill="#6366F1"/>
<path d="M9.32583 11.4229H8.47803V12.2707H9.32583V11.4229Z" fill="#6366F1"/>
<path d="M9.32583 12.2705H8.47803V13.1183H9.32583V12.2705Z" fill="#6366F1"/>
<path d="M10.1737 12.2705H9.32593V13.1183H10.1737V12.2705Z" fill="#6366F1"/>
<path d="M10.1737 13.1182H9.32593V13.966H10.1737V13.1182Z" fill="#6366F1"/>
<path d="M11.0214 13.1182H10.1736V13.966H11.0214V13.1182Z" fill="#6366F1"/>
<path d="M11.0214 13.9663H10.1736V14.8141H11.0214V13.9663Z" fill="#6366F1"/>
<path d="M11.8693 13.9663H11.0215V14.8141H11.8693V13.9663Z" fill="#6366F1"/>
<path d="M11.8693 14.814H11.0215V15.6618H11.8693V14.814Z" fill="#6366F1"/>
<path d="M11.8693 15.6616H11.0215V16.5094H11.8693V15.6616Z" fill="#6366F1"/>
<path d="M12.7172 15.6616H11.8694V16.5094H12.7172V15.6616Z" fill="#6366F1"/>
<path d="M12.7172 16.5098H11.8694V17.3576H12.7172V16.5098Z" fill="#6366F1"/>
<path d="M13.5648 16.5098H12.717V17.3576H13.5648V16.5098Z" fill="#6366F1"/>
<path d="M13.5648 17.3574H12.717V18.2052H13.5648V17.3574Z" fill="#6366F1"/>
<path d="M14.4127 17.3574H13.5649V18.2052H14.4127V17.3574Z" fill="#6366F1"/>
<path d="M8.47818 10.5747H7.63037V11.4225H8.47818V10.5747Z" fill="#6366F1"/>
<path d="M8.47818 10.5747H7.63037V11.4225H8.47818V10.5747Z" fill="#6366F1"/>
<path d="M0.847804 9.72705H0V10.5749H0.847804V9.72705Z" fill="#6366F1"/>
<path d="M0.847804 10.5747H0V11.4225H0.847804V10.5747Z" fill="#6366F1"/>
<path d="M0.847804 11.4229H0V12.2707H0.847804V11.4229Z" fill="#6366F1"/>
<path d="M0.847804 12.2705H0V13.1183H0.847804V12.2705Z" fill="#6366F1"/>
<path d="M0.847804 13.1182H0V13.966H0.847804V13.1182Z" fill="#6366F1"/>
<path d="M1.6957 13.1182H0.8479V13.966H1.6957V13.1182Z" fill="#6366F1"/>
<path d="M1.6957 13.9663H0.8479V14.8141H1.6957V13.9663Z" fill="#6366F1"/>
<path d="M0.847804 13.9663H0V14.8141H0.847804V13.9663Z" fill="#6366F1"/>
<path d="M0.847804 14.814H0V15.6618H0.847804V14.814Z" fill="#6366F1"/>
<path d="M1.6957 14.814H0.8479V15.6618H1.6957V14.814Z" fill="#6366F1"/>
<path d="M2.54336 14.814H1.69556V15.6618H2.54336V14.814Z" fill="#6366F1"/>
<path d="M2.54336 13.9663H1.69556V14.8141H2.54336V13.9663Z" fill="#6366F1"/>
<path d="M2.54336 13.1182H1.69556V13.966H2.54336V13.1182Z" fill="#6366F1"/>
<path d="M3.39126 14.814H2.54346V15.6618H3.39126V14.814Z" fill="#6366F1"/>
<path d="M3.39126 15.6616H2.54346V16.5094H3.39126V15.6616Z" fill="#6366F1"/>
<path d="M2.54336 15.6616H1.69556V16.5094H2.54336V15.6616Z" fill="#6366F1"/>
<path d="M1.6957 15.6616H0.8479V16.5094H1.6957V15.6616Z" fill="#6366F1"/>
<path d="M1.6957 16.5098H0.8479V17.3576H1.6957V16.5098Z" fill="#6366F1"/>
<path d="M2.54336 16.5098H1.69556V17.3576H2.54336V16.5098Z" fill="#6366F1"/>
<path d="M3.39126 16.5098H2.54346V17.3576H3.39126V16.5098Z" fill="#6366F1"/>
<path d="M3.39126 17.3574H2.54346V18.2052H3.39126V17.3574Z" fill="#6366F1"/>
<path d="M2.54336 17.3574H1.69556V18.2052H2.54336V17.3574Z" fill="#6366F1"/>
<path d="M2.54336 18.2051H1.69556V19.0529H2.54336V18.2051Z" fill="#6366F1"/>
<path d="M3.39126 18.2051H2.54346V19.0529H3.39126V18.2051Z" fill="#6366F1"/>
<path d="M4.23892 18.2051H3.39111V19.0529H4.23892V18.2051Z" fill="#6366F1"/>
<path d="M4.23892 17.3574H3.39111V18.2052H4.23892V17.3574Z" fill="#6366F1"/>
<path d="M4.23892 16.5098H3.39111V17.3576H4.23892V16.5098Z" fill="#6366F1"/>
<path d="M5.08682 17.3574H4.23901V18.2052H5.08682V17.3574Z" fill="#6366F1"/>
<path d="M5.08682 18.2051H4.23901V19.0529H5.08682V18.2051Z" fill="#6366F1"/>
<path d="M5.08682 19.0532H4.23901V19.901H5.08682V19.0532Z" fill="#6366F1"/>
<path d="M4.23892 19.0532H3.39111V19.901H4.23892V19.0532Z" fill="#6366F1"/>
<path d="M3.39126 19.0532H2.54346V19.901H3.39126V19.0532Z" fill="#6366F1"/>
<path d="M4.23892 19.9009H3.39111V20.7487H4.23892V19.9009Z" fill="#6366F1"/>
<path d="M5.08682 19.9009H4.23901V20.7487H5.08682V19.9009Z" fill="#6366F1"/>
<path d="M5.93472 19.9009H5.08691V20.7487H5.93472V19.9009Z" fill="#6366F1"/>
<path d="M5.93472 20.7485H5.08691V21.5963H5.93472V20.7485Z" fill="#6366F1"/>
<path d="M6.78237 20.7485H5.93457V21.5963H6.78237V20.7485Z" fill="#6366F1"/>
<path d="M6.78237 19.9009H5.93457V20.7487H6.78237V19.9009Z" fill="#6366F1"/>
<path d="M6.78237 19.0532H5.93457V19.901H6.78237V19.0532Z" fill="#6366F1"/>
<path d="M5.93472 18.2051H5.08691V19.0529H5.93472V18.2051Z" fill="#6366F1"/>
<path d="M6.78237 18.2051H5.93457V19.0529H6.78237V18.2051Z" fill="#6366F1"/>
<path d="M7.63027 18.2051H6.78247V19.0529H7.63027V18.2051Z" fill="#6366F1"/>
<path d="M7.63027 17.3574H6.78247V18.2052H7.63027V17.3574Z" fill="#6366F1"/>
<path d="M7.63027 16.5098H6.78247V17.3576H7.63027V16.5098Z" fill="#6366F1"/>
<path d="M8.47818 17.3574H7.63037V18.2052H8.47818V17.3574Z" fill="#6366F1"/>
<path d="M8.47818 18.2051H7.63037V19.0529H8.47818V18.2051Z" fill="#6366F1"/>
<path d="M9.32583 18.2051H8.47803V19.0529H9.32583V18.2051Z" fill="#6366F1"/>
<path d="M8.47818 16.5098H7.63037V17.3576H8.47818V16.5098Z" fill="#6366F1"/>
<path d="M9.32583 17.3574H8.47803V18.2052H9.32583V17.3574Z" fill="#6366F1"/>
<path d="M10.1737 18.2051H9.32593V19.0529H10.1737V18.2051Z" fill="#6366F1"/>
<path d="M11.0214 19.0532H10.1736V19.901H11.0214V19.0532Z" fill="#6366F1"/>
<path d="M10.1737 19.0532H9.32593V19.901H10.1737V19.0532Z" fill="#6366F1"/>
<path d="M9.32583 19.0532H8.47803V19.901H9.32583V19.0532Z" fill="#6366F1"/>
<path d="M8.47818 19.0532H7.63037V19.901H8.47818V19.0532Z" fill="#6366F1"/>
<path d="M7.63027 19.0532H6.78247V19.901H7.63027V19.0532Z" fill="#6366F1"/>
<path d="M7.63027 20.7485H6.78247V21.5963H7.63027V20.7485Z" fill="#6366F1"/>
<path d="M8.47818 20.7485H7.63037V21.5963H8.47818V20.7485Z" fill="#6366F1"/>
<path d="M9.32583 20.7485H8.47803V21.5963H9.32583V20.7485Z" fill="#6366F1"/>
<path d="M10.1737 20.7485H9.32593V21.5963H10.1737V20.7485Z" fill="#6366F1"/>
<path d="M11.0214 20.7485H10.1736V21.5963H11.0214V20.7485Z" fill="#6366F1"/>
<path d="M11.8693 20.7485H11.0215V21.5963H11.8693V20.7485Z" fill="#6366F1"/>
<path d="M14.4127 20.7485H13.5649V21.5963H14.4127V20.7485Z" fill="#6366F1"/>
<path d="M11.8693 19.9009H11.0215V20.7487H11.8693V19.9009Z" fill="#6366F1"/>
<path d="M11.8693 19.0532H11.0215V19.901H11.8693V19.0532Z" fill="#6366F1"/>
<path d="M12.7172 19.9009H11.8694V20.7487H12.7172V19.9009Z" fill="#6366F1"/>
<path d="M13.5648 19.9009H12.717V20.7487H13.5648V19.9009Z" fill="#6366F1"/>
<path d="M15.2604 19.9009H14.4126V20.7487H15.2604V19.9009Z" fill="#6366F1"/>
<path d="M16.1083 19.9009H15.2605V20.7487H16.1083V19.9009Z" fill="#6366F1"/>
<path d="M16.9562 19.9009H16.1084V20.7487H16.9562V19.9009Z" fill="#6366F1"/>
<path d="M13.5648 19.0532H12.717V19.901H13.5648V19.0532Z" fill="#6366F1"/>
<path d="M14.4127 19.0532H13.5649V19.901H14.4127V19.0532Z" fill="#6366F1"/>
<path d="M15.2604 19.0532H14.4126V19.901H15.2604V19.0532Z" fill="#6366F1"/>
<path d="M14.4127 18.2051H13.5649V19.0529H14.4127V18.2051Z" fill="#6366F1"/>
<path d="M16.1083 18.2051H15.2605V19.0529H16.1083V18.2051Z" fill="#6366F1"/>
<path d="M17.8039 18.2051H16.9561V19.0529H17.8039V18.2051Z" fill="#6366F1"/>
<path d="M19.4994 18.2051H18.6516V19.0529H19.4994V18.2051Z" fill="#6366F1"/>
<path d="M18.6515 19.9009H17.8037V20.7487H18.6515V19.9009Z" fill="#6366F1"/>
<path d="M20.3471 18.2051H19.4993V19.0529H20.3471V18.2051Z" fill="#6366F1"/>
<path d="M20.3471 19.9009H19.4993V20.7487H20.3471V19.9009Z" fill="#6366F1"/>
<path d="M21.1947 20.7485H20.3469V21.5963H21.1947V20.7485Z" fill="#6366F1"/>
<path d="M20.3471 20.7485H19.4993V21.5963H20.3471V20.7485Z" fill="#6366F1"/>
<path d="M19.4994 20.7485H18.6516V21.5963H19.4994V20.7485Z" fill="#6366F1"/>
<path d="M21.1947 18.2051H20.3469V19.0529H21.1947V18.2051Z" fill="#6366F1"/>
<path d="M22.0426 18.2051H21.1948V19.0529H22.0426V18.2051Z" fill="#6366F1"/>
<path d="M23.7382 18.2051H22.8904V19.0529H23.7382V18.2051Z" fill="#6366F1"/>
<path d="M24.5861 18.2051H23.7383V19.0529H24.5861V18.2051Z" fill="#6366F1"/>
<path d="M25.4337 18.2051H24.5859V19.0529H25.4337V18.2051Z" fill="#6366F1"/>
<path d="M16.9562 17.3574H16.1084V18.2052H16.9562V17.3574Z" fill="#6366F1"/>
<path d="M16.1083 17.3574H15.2605V18.2052H16.1083V17.3574Z" fill="#6366F1"/>
<path d="M15.2604 17.3574H14.4126V18.2052H15.2604V17.3574Z" fill="#6366F1"/>
<path d="M16.1083 16.5098H15.2605V17.3576H16.1083V16.5098Z" fill="#6366F1"/>
<path d="M17.8041 16.5098H16.9563V17.3576H17.8041V16.5098Z" fill="#6366F1"/>
<path d="M18.6518 16.5098H17.804V17.3576H18.6518V16.5098Z" fill="#6366F1"/>
<path d="M26.3376 16.5098H22.0425V17.3576H26.3376V16.5098Z" fill="#6366F1"/>
<path d="M16.9562 15.6616H16.1084V16.5094H16.9562V15.6616Z" fill="#6366F1"/>
<path d="M18.6518 14.814H17.804V15.6618H18.6518V14.814Z" fill="#6366F1"/>
<path d="M17.8039 13.9663H16.9561V14.8141H17.8039V13.9663Z" fill="#6366F1"/>
<path d="M19.4994 13.1182H18.6516V13.966H19.4994V13.1182Z" fill="#6366F1"/>
<path d="M22.8903 13.1182H22.0425V13.966H22.8903V13.1182Z" fill="#6366F1"/>
<path d="M23.7387 13.1182H22.8909V13.966H23.7387V13.1182Z" fill="#6366F1"/>
<path d="M22.0431 13.1182H21.1953V13.966H22.0431V13.1182Z" fill="#6366F1"/>
<path d="M18.6518 12.2705H17.804V13.1183H18.6518V12.2705Z" fill="#6366F1"/>
<path d="M18.6518 11.4229H17.804V12.2707H18.6518V11.4229Z" fill="#6366F1"/>
<path d="M18.6518 9.72705H17.804V10.5749H18.6518V9.72705Z" fill="#6366F1"/>
<path d="M17.8039 9.72705H16.9561V10.5749H17.8039V9.72705Z" fill="#6366F1"/>
<path d="M17.8039 8.87939H16.9561V9.7272H17.8039V8.87939Z" fill="#6366F1"/>
<path d="M18.6518 8.03174H17.804V8.87954H18.6518V8.03174Z" fill="#6366F1"/>
<path d="M21.1952 7.18359H20.3474V8.0314H21.1952V7.18359Z" fill="#6366F1"/>
<path d="M22.0426 7.18359H21.1948V8.0314H22.0426V7.18359Z" fill="#6366F1"/>
<path d="M20.3473 6.33594H19.4995V7.18374H20.3473V6.33594Z" fill="#6366F1"/>
<path d="M20.3473 5.48828H19.4995V6.33609H20.3473V5.48828Z" fill="#6366F1"/>
<path d="M19.4994 5.48828H18.6516V6.33609H19.4994V5.48828Z" fill="#6366F1"/>
<path d="M19.4994 6.33594H18.6516V7.18374H19.4994V6.33594Z" fill="#6366F1"/>
<path d="M18.6518 6.33594H17.804V7.18374H18.6518V6.33594Z" fill="#6366F1"/>
<path d="M18.6518 7.18359H17.804V8.0314H18.6518V7.18359Z" fill="#6366F1"/>
<path d="M17.8039 7.18359H16.9561V8.0314H17.8039V7.18359Z" fill="#6366F1"/>
<path d="M17.8039 8.03174H16.9561V8.87954H17.8039V8.03174Z" fill="#6366F1"/>
<path d="M16.9562 7.18359H16.1084V8.0314H16.9562V7.18359Z" fill="#6366F1"/>
<path d="M16.9562 6.33594H16.1084V7.18374H16.9562V6.33594Z" fill="#6366F1"/>
<path d="M17.8039 6.33594H16.9561V7.18374H17.8039V6.33594Z" fill="#6366F1"/>
<path d="M16.9562 5.48828H16.1084V6.33609H16.9562V5.48828Z" fill="#6366F1"/>
<path d="M16.1083 4.64014H15.2605V5.48794H16.1083V4.64014Z" fill="#6366F1"/>
<path d="M15.2604 3.79248H14.4126V4.64028H15.2604V3.79248Z" fill="#6366F1"/>
<path d="M15.2604 4.64014H14.4126V5.48794H15.2604V4.64014Z" fill="#6366F1"/>
<path d="M16.1083 5.48828H15.2605V6.33609H16.1083V5.48828Z" fill="#6366F1"/>
<path d="M15.2604 5.48828H14.4126V6.33609H15.2604V5.48828Z" fill="#6366F1"/>
<path d="M16.1083 6.33594H15.2605V7.18374H16.1083V6.33594Z" fill="#6366F1"/>
<path d="M16.1083 7.18359H15.2605V8.0314H16.1083V7.18359Z" fill="#6366F1"/>
<path d="M15.2604 6.33594H14.4126V7.18374H15.2604V6.33594Z" fill="#6366F1"/>
<path d="M16.9562 8.03174H16.1084V8.87954H16.9562V8.03174Z" fill="#6366F1"/>
<path d="M19.4994 8.03174H18.6516V8.87954H19.4994V8.03174Z" fill="#6366F1"/>
<path d="M19.4994 8.87939H18.6516V9.7272H19.4994V8.87939Z" fill="#6366F1"/>
<path d="M20.3473 8.87939H19.4995V9.7272H20.3473V8.87939Z" fill="#6366F1"/>
<path d="M24.5866 8.87939H23.7388V9.7272H24.5866V8.87939Z" fill="#6366F1"/>
<path d="M23.7387 8.87939H22.8909V9.7272H23.7387V8.87939Z" fill="#6366F1"/>
<path d="M25.4345 8.87939H24.5867V9.7272H25.4345V8.87939Z" fill="#6366F1"/>
<path d="M23.7387 7.18359H22.8909V8.0314H23.7387V7.18359Z" fill="#6366F1"/>
<path d="M25.4342 7.18359H24.5864V8.0314H25.4342V7.18359Z" fill="#6366F1"/>
<path d="M21.1952 6.33594H20.3474V7.18374H21.1952V6.33594Z" fill="#6366F1"/>
<path d="M21.1952 4.64014H20.3474V5.48794H21.1952V4.64014Z" fill="#6366F1"/>
<path d="M22.0429 4.64014H21.1951V5.48794H22.0429V4.64014Z" fill="#6366F1"/>
<path d="M22.8908 4.64014H22.043V5.48794H22.8908V4.64014Z" fill="#6366F1"/>
<path d="M24.6391 4.64014H23.7913V5.48794H24.6391V4.64014Z" fill="#6366F1"/>
<path d="M16.9562 9.72705H16.1084V10.5749H16.9562V9.72705Z" fill="#6366F1"/>
<path d="M16.9562 10.5747H16.1084V11.4225H16.9562V10.5747Z" fill="#6366F1"/>
<path d="M17.8039 10.5747H16.9561V11.4225H17.8039V10.5747Z" fill="#6366F1"/>
<path d="M20.3473 11.4229H19.4995V12.2707H20.3473V11.4229Z" fill="#6366F1"/>
<path d="M21.1947 11.4229H20.3469V12.2707H21.1947V11.4229Z" fill="#6366F1"/>
<path d="M25.3888 11.4229H24.541V12.2707H25.3888V11.4229Z" fill="#6366F1"/>
<path d="M23.6933 11.4229H22.8455V12.2707H23.6933V11.4229Z" fill="#6366F1"/>
<path d="M16.9562 11.4229H16.1084V12.2707H16.9562V11.4229Z" fill="#6366F1"/>
<path d="M16.9562 12.2705H16.1084V13.1183H16.9562V12.2705Z" fill="#6366F1"/>
<path d="M16.1083 12.2705H15.2605V13.1183H16.1083V12.2705Z" fill="#6366F1"/>
<path d="M16.1083 13.1182H15.2605V13.966H16.1083V13.1182Z" fill="#6366F1"/>
<path d="M16.9562 13.1182H16.1084V13.966H16.9562V13.1182Z" fill="#6366F1"/>
<path d="M17.8039 12.2705H16.9561V13.1183H17.8039V12.2705Z" fill="#6366F1"/>
<path d="M16.9562 13.9663H16.1084V14.8141H16.9562V13.9663Z" fill="#6366F1"/>
<path d="M16.1083 13.9663H15.2605V14.8141H16.1083V13.9663Z" fill="#6366F1"/>
<path d="M15.2604 13.9663H14.4126V14.8141H15.2604V13.9663Z" fill="#6366F1"/>
<path d="M15.2604 14.814H14.4126V15.6618H15.2604V14.814Z" fill="#6366F1"/>
<path d="M16.1083 14.814H15.2605V15.6618H16.1083V14.814Z" fill="#6366F1"/>
<path d="M15.2604 15.6616H14.4126V16.5094H15.2604V15.6616Z" fill="#6366F1"/>
<path d="M15.2604 16.5098H14.4126V17.3576H15.2604V16.5098Z" fill="#6366F1"/>
<path d="M16.9562 16.5098H16.1084V17.3576H16.9562V16.5098Z" fill="#6366F1"/>
<path d="M14.4127 14.814H13.5649V15.6618H14.4127V14.814Z" fill="#6366F1"/>
<path d="M14.4127 16.5098H13.5649V17.3576H14.4127V16.5098Z" fill="#6366F1"/>
<path d="M14.4127 15.6616H13.5649V16.5094H14.4127V15.6616Z" fill="#6366F1"/>
<path d="M14.4127 14.814H13.5649V15.6618H14.4127V14.814Z" fill="#6366F1"/>
<path d="M14.4127 16.5098H13.5649V17.3576H14.4127V16.5098Z" fill="#6366F1"/>
<path d="M14.4127 15.6616H13.5649V16.5094H14.4127V15.6616Z" fill="#6366F1"/>
<path d="M12.7172 19.0532H11.8694V19.901H12.7172V19.0532Z" fill="#6366F1"/>
<path d="M7.63027 19.9009H6.78247V20.7487H7.63027V19.9009Z" fill="#6366F1"/>
<path d="M8.47818 19.9009H7.63037V20.7487H8.47818V19.9009Z" fill="#6366F1"/>
<path d="M9.32583 19.9009H8.47803V20.7487H9.32583V19.9009Z" fill="#6366F1"/>
<path d="M10.1737 19.9009H9.32593V20.7487H10.1737V19.9009Z" fill="#6366F1"/>
<path d="M11.0214 19.9009H10.1736V20.7487H11.0214V19.9009Z" fill="#6366F1"/>
<path d="M5.93472 19.0532H5.08691V19.901H5.93472V19.0532Z" fill="#6366F1"/>
<path d="M1.6957 12.2705H0.8479V13.1183H1.6957V12.2705Z" fill="#6366F1"/>
<path d="M1.6957 11.4229H0.8479V12.2707H1.6957V11.4229Z" fill="#6366F1"/>
<path d="M1.6957 10.5747H0.8479V11.4225H1.6957V10.5747Z" fill="#6366F1"/>
</g>
</svg>
